<svg version="1.1" id="Layer_1" xmlns="http://www.w3.org/2000/svg" xmlns:xlink="http://www.w3.org/1999/xlink" x="0px" y="0px"
	 viewBox="0 0 285 40" style="enable-background:new 0 0 285 40;" xml:space="preserve">
<title>Triodos Bank logo</title>
<g>
	<path fill="#00937B" d="M183.9,19.1c0-4.9-1.8-9.5-5.1-13.1c-1.7-1.8-3.6-3.3-5.8-4.4l-0.5,0.8c1.2,0.7,2.3,1.6,3.3,2.6
		c3.4,3.5,5.3,8.1,5.4,13c0,0.7,0,1.9-0.1,2.9c-0.6-2.1-1.7-4-3.2-5.6c-0.5-0.6-1-1.1-1.7-1.4c-0.1,1.5-0.4,3-0.8,4.5
		c0.6,0.4,1.1,0.9,1.6,1.4c1.3,1.2,2.1,2.9,2.2,4.7c0,0.9-0.4,1.8-1.1,2.4c-1,0.8-2.2,1.2-3.5,1.2c-1.9-0.1-3.8-0.7-5.4-1.8
		c2.5-2.5,4.3-5.6,5.1-9c0.4-1.5,0.6-3,0.6-4.6c0-2.6-0.6-5.2-1.9-7.5C171.3,2,168,0,164.4,0c-4.5,0.1-8.8,2.1-11.8,5.4
		c-3.4,3.3-5.4,7.9-5.4,12.7c0,0.8,0,1.6,0.1,2.4h0.9c0-4.8,1.9-9.3,5.4-12.6c1.8-1.7,3.8-3.2,6.1-4.2c-1.6,1.5-2.7,3.5-3.3,5.6
		c-0.2,0.7-0.3,1.4-0.3,2.1c1.4-0.7,2.8-1.2,4.3-1.5c0.2-2.1,1.1-4,2.5-5.6c0.7-0.7,1.6-1.2,2.6-1.2c1.6,0.1,3,1.1,3.7,2.5
		c0.9,1.7,1.3,3.7,1.1,5.6c-3.4-1.1-7-1.1-10.4,0c-2.9,0.7-5.5,2.2-7.6,4.3c-2.2,2.1-3.5,4.9-3.7,7.9c0.1,3,1.4,5.8,3.6,7.8
		c3.6,3.4,8.3,5.4,13.3,5.3c3.9,0,7.6-1.2,10.8-3.4l-0.2-0.6c-2.5,1.4-5.3,2.1-8.2,2.1c-4.4,0.1-8.6-1.3-12.1-3.9
		c0.9,0.3,1.9,0.5,2.9,0.5c1.9,0,3.8-0.4,5.5-1.2c-1.3-0.9-2.5-1.9-3.5-3c-1.3,0.5-2.8,0.9-4.2,0.9c-1.4,0.1-2.7-0.4-3.7-1.3
		c-0.6-0.6-0.9-1.4-0.9-2.3c0.1-1.7,0.9-3.4,2.2-4.5c0.8-0.9,1.8-1.6,2.9-2.1c0.9,3.4,2.7,6.6,5.2,9.1c2.9,3,6.9,4.8,11.1,5
		c2.7,0.1,5.3-0.9,7.2-2.7C182.7,26.3,183.9,22.7,183.9,19.1 M170,16.1c-0.9,2.8-2.5,5.3-4.6,7.4c-2-2.2-3.3-4.8-4-7.7
		c1.2-0.3,2.4-0.4,3.6-0.4C166.7,15.4,168.4,15.7,170,16.1" />
	<path fill="#00006B" d="M9.5,4.4H7.8c-1,0-1.9,0.1-2.8,0.2C4.4,4.8,3.8,5.1,3.3,5.5C2.8,6,2.5,6.6,2.3,7.2C2.1,8,1.8,8.9,1.5,10H0
		c0-0.2,0-0.6,0.1-1.3s0.1-1.4,0.2-2.2s0.1-1.6,0.2-2.3c0-0.5,0.1-1,0.2-1.4h23.4c0,0.2,0.1,0.7,0.1,1.4s0.1,1.5,0.2,2.3
		s0.1,1.5,0.1,2.2s0.1,1.1,0.1,1.3H23c-0.3-1.1-0.5-2-0.8-2.8c-0.2-0.6-0.5-1.2-1-1.7c-0.5-0.4-1.1-0.8-1.7-0.9
		c-0.9-0.2-1.9-0.3-2.8-0.2H15v20c0,1.1,0,1.9,0,2.5c0,0.5,0.1,0.9,0.3,1.4c0.2,0.3,0.5,0.6,0.8,0.7c0.5,0.1,1,0.2,1.6,0.3l1,0.1
		v1.1H5.8v-1.1l1-0.1c0.5-0.1,1.1-0.2,1.6-0.3c0.4-0.1,0.7-0.3,0.8-0.7c0.2-0.4,0.3-0.9,0.3-1.4c0-0.6,0-1.4,0-2.5L9.5,4.4z"/>
	<path fill="#00006B" d="M26.4,16.8c0-0.4,0-0.8,0-1.1c0-0.4-0.1-0.7-0.1-1.1c-0.1-0.3-0.2-0.6-0.4-0.8c-0.2-0.2-0.4-0.3-0.7-0.3
		c-0.3,0-0.5,0-0.8,0.1c-0.2,0-0.4,0.1-0.5,0.2v-1.1c0.8-0.3,1.5-0.5,2-0.7s1.1-0.3,1.6-0.5l1.5-0.4c0.5-0.1,1.2-0.2,1.9-0.3
		c0.1,0.4,0.1,0.8,0.2,1.3s0.1,1.1,0.1,1.6c0.2-0.2,0.5-0.5,0.8-0.8s0.7-0.7,1.1-0.9c0.4-0.3,0.9-0.6,1.3-0.8c0.5-0.2,1-0.3,1.6-0.3
		c0.4,0,0.8,0.1,1.2,0.2c0.3,0.1,0.7,0.3,1,0.5s0.5,0.4,0.7,0.6c0.2,0.2,0.4,0.4,0.5,0.6c-0.3,0.6-0.6,1.1-1,1.6
		c-0.5,0.5-1,1-1.5,1.3c-0.3-0.1-0.5-0.1-0.8-0.2c-0.3-0.1-0.7-0.3-1.1-0.4l-1-0.5c-0.2-0.1-0.5-0.1-0.7-0.2c-0.3,0-0.6,0.1-0.9,0.2
		c-0.3,0.2-0.6,0.4-0.8,0.7v10.2c0,0.8,0,1.4,0,1.8s0.1,0.7,0.2,1.1c0.1,0.3,0.3,0.5,0.5,0.6c0.3,0.1,0.7,0.2,1,0.2l1.7,0.2v1.1
		H23.8v-1.1l0.9-0.1c0.3,0,0.6-0.1,0.9-0.2c0.2-0.1,0.4-0.2,0.5-0.5s0.2-0.5,0.2-0.8c0-0.5,0.1-0.9,0.1-1.4V16.8z"/>
	<path fill="#00006B" d="M41.2,29.4l0.9-0.1c0.3,0,0.6-0.1,0.9-0.2c0.2-0.1,0.4-0.2,0.5-0.4c0.1-0.3,0.2-0.5,0.2-0.8
		c0-0.5,0.1-0.9,0.1-1.4v-9.9c0-0.4,0-0.7,0-1.1c0-0.4-0.1-0.7-0.2-1.1c-0.1-0.3-0.2-0.6-0.4-0.8s-0.4-0.3-0.7-0.3s-0.6,0-0.8,0.1
		l-0.5,0.1v-1.2c2.5-0.9,5-1.4,7.6-1.5v15.8c0,0.5,0,0.9,0.1,1.4c0,0.3,0.1,0.6,0.2,0.8c0.1,0.2,0.3,0.4,0.5,0.4
		c0.3,0.1,0.6,0.2,0.9,0.2l0.9,0.1v1.1H41.2V29.4z M46.1,7.3c-0.8,0-1.5-0.3-2.1-0.8c-0.6-0.6-0.9-1.3-0.8-2.1
		c0-0.8,0.3-1.5,0.8-2.1c0.6-0.6,1.3-0.9,2.1-0.8c0.8,0,1.5,0.3,2.1,0.8c0.5,0.5,0.8,1.2,0.8,2s-0.3,1.6-0.9,2.2
		C47.6,7,46.8,7.3,46.1,7.3z"/>
	<path fill="#00006B" d="M63.3,31.1c-1.3,0-2.6-0.2-3.9-0.6c-1.2-0.4-2.3-1-3.3-1.8s-1.8-1.9-2.3-3.1c-0.6-1.4-0.9-3-0.8-4.5
		c0-1.6,0.3-3.2,0.9-4.7c0.6-1.2,1.4-2.4,2.4-3.2c1-0.9,2.2-1.5,3.4-1.9c1.3-0.4,2.6-0.6,3.9-0.6s2.7,0.2,4,0.6
		c1.2,0.4,2.4,1,3.3,1.8c1,0.8,1.8,1.8,2.3,3c0.6,1.4,0.9,2.9,0.9,4.4c0,1.7-0.3,3.3-0.9,4.8c-0.6,1.3-1.4,2.4-2.4,3.3
		s-2.2,1.5-3.4,1.9C66,30.9,64.7,31.1,63.3,31.1z M58.3,20.3c0,1.1,0.1,2.2,0.3,3.3c0.2,1,0.5,2.1,1,3c0.4,0.8,1,1.6,1.7,2.1
		c0.7,0.6,1.6,0.9,2.6,0.8c0.9,0,1.7-0.2,2.4-0.8c0.6-0.5,1.1-1.2,1.5-2s0.6-1.7,0.7-2.6s0.2-1.8,0.2-2.7c0-1.1-0.1-2.2-0.3-3.3
		c-0.2-1-0.5-2-0.9-2.9c-0.4-0.8-1-1.5-1.7-2.1c-0.8-0.6-1.7-0.8-2.7-0.8c-0.9,0-1.7,0.2-2.4,0.8c-0.6,0.5-1.2,1.1-1.5,1.9
		c-0.4,0.8-0.6,1.7-0.8,2.6C58.4,18.5,58.3,19.4,58.3,20.3z"/>
	<path fill="#00006B" d="M91.6,7.6c0-1.4,0-2.7-0.2-4.1c-0.1-0.8-0.5-1.3-1.2-1.3c-0.2,0-0.5,0-0.7,0H89v-1c0.9-0.2,1.7-0.3,2.3-0.4
		s1.4-0.2,1.9-0.3s1.2-0.1,1.7-0.2s1.1,0,1.7,0v23.6c0,0.8,0,1.5,0,2.1c0,0.4,0.1,0.9,0.2,1.3c0.1,0.3,0.3,0.5,0.6,0.7
		c0.3,0.2,0.7,0.2,1.1,0.2h0.9l0.1,1.1c-1.1,0.4-2.2,0.7-3.3,1c-1.1,0.3-2.2,0.5-3.4,0.7l-1.1-1.9l-1,0.5c-0.4,0.2-0.9,0.5-1.3,0.6
		c-0.5,0.2-1.1,0.4-1.6,0.5c-0.6,0.1-1.3,0.2-1.9,0.2c-1.2,0-2.3-0.2-3.4-0.6c-2.3-0.8-4.1-2.4-5.1-4.6c-0.6-1.3-0.8-2.7-0.8-4.2
		c0-1.4,0.2-2.8,0.7-4.1c0.4-1.1,1-2.1,1.7-3c0.7-0.8,1.5-1.5,2.4-2c0.8-0.5,1.7-0.9,2.7-1.2c0.8-0.3,1.7-0.5,2.6-0.6
		c0.7-0.1,1.4-0.1,2.1-0.1c0.5,0,1,0,1.6,0.1l1.2,0.2L91.6,7.6z M91.6,13.8c-0.4-0.4-0.9-0.7-1.3-1c-0.7-0.4-1.5-0.5-2.2-0.5
		c-0.9,0-1.7,0.2-2.5,0.6c-0.7,0.4-1.3,0.9-1.8,1.6c-0.5,0.7-0.9,1.5-1.1,2.3c-0.3,1-0.4,1.9-0.4,2.9c0,1.3,0.2,2.6,0.6,3.8
		c0.4,1,0.9,2,1.6,2.8c0.6,0.7,1.4,1.3,2.2,1.7c0.8,0.4,1.6,0.6,2.5,0.6c0.5,0,1-0.1,1.5-0.2c0.4-0.1,0.7-0.3,1-0.5L91.6,13.8z"/>
	<path fill="#00006B" d="M111.5,31.1c-1.3,0-2.6-0.2-3.9-0.6c-1.2-0.4-2.3-1-3.3-1.8s-1.8-1.9-2.3-3.1c-0.6-1.4-0.9-3-0.9-4.5
		c0-1.6,0.3-3.2,0.9-4.7c0.6-1.2,1.4-2.4,2.4-3.2c1-0.9,2.2-1.5,3.4-1.9c1.3-0.4,2.6-0.6,3.9-0.6c1.4,0,2.7,0.2,4,0.6
		c1.2,0.4,2.3,1,3.2,1.8c1,0.8,1.8,1.8,2.3,3c0.6,1.4,0.9,2.9,0.9,4.4c0,1.7-0.3,3.3-0.9,4.8c-0.6,1.3-1.4,2.4-2.4,3.3
		s-2.2,1.5-3.4,1.9C114.1,30.9,112.8,31.1,111.5,31.1z M106.5,20.3c0,1.1,0.1,2.2,0.3,3.3c0.2,1,0.5,2.1,1,3c0.4,0.8,1,1.6,1.7,2.1
		c0.7,0.6,1.6,0.9,2.6,0.8c0.9,0,1.7-0.2,2.4-0.8c0.6-0.5,1.1-1.2,1.5-2s0.6-1.7,0.7-2.6s0.2-1.8,0.2-2.7c0-1.1-0.1-2.2-0.3-3.3
		c-0.2-1-0.5-2-0.9-2.9c-0.4-0.8-1-1.6-1.7-2.1c-0.8-0.6-1.7-0.8-2.7-0.8c-0.9,0-1.7,0.2-2.4,0.8c-0.6,0.5-1.2,1.2-1.5,1.9
		c-0.4,0.8-0.6,1.7-0.8,2.6C106.5,18.5,106.5,19.4,106.5,20.3z"/>
	<path fill="#00006B" d="M136.7,17.1c0-0.4-0.1-0.9-0.3-1.3c-0.2-0.6-0.4-1.1-0.7-1.6s-0.7-1-1.2-1.3c-0.6-0.4-1.3-0.6-1.9-0.5
		c-0.6,0-1.2,0.3-1.7,0.8s-0.7,1.2-0.7,1.9s0.2,1.3,0.7,1.8s1.1,1,1.7,1.3c0.7,0.4,1.5,0.8,2.3,1.1c0.8,0.4,1.6,0.8,2.3,1.3
		s1.3,1.1,1.8,1.8c0.5,0.8,0.7,1.7,0.7,2.7c0,0.8-0.1,1.6-0.4,2.3c-0.3,0.7-0.8,1.4-1.4,1.9c-0.7,0.6-1.6,1.1-2.5,1.3
		c-1.2,0.3-2.4,0.5-3.7,0.5c-1.1,0-2.2-0.1-3.3-0.4c-0.9-0.2-1.7-0.5-2.5-0.9c-0.5-2-0.8-4-0.8-6h1.7c0.1,0.6,0.2,1.3,0.5,1.9
		c0.3,0.7,0.6,1.3,1.1,1.8c0.4,0.6,1,1.1,1.6,1.5s1.4,0.6,2.1,0.6c0.8,0.1,1.5-0.3,2.1-0.8c0.5-0.5,0.7-1.2,0.7-2
		c0-0.7-0.2-1.5-0.7-2.1s-1.1-1-1.7-1.4c-0.7-0.4-1.5-0.8-2.3-1.2c-0.8-0.3-1.6-0.8-2.3-1.3s-1.3-1.1-1.7-1.9
		c-0.5-0.8-0.7-1.8-0.7-2.8c0-0.1,0-0.4,0.1-1c0.1-0.7,0.4-1.3,0.8-1.9c0.6-0.8,1.3-1.4,2.2-1.8c1.4-0.6,2.8-0.9,4.3-0.8
		c1,0,2,0.1,3,0.4c0.7,0.2,1.4,0.5,2.1,0.8c0.2,0.8,0.4,1.7,0.4,2.6s0.1,1.8,0.1,2.6L136.7,17.1z"/>
	<path fill="#00006B" d="M191.3,29.4l1-0.1c0.5-0.1,0.9-0.2,1.1-0.3c0.3-0.1,0.5-0.3,0.6-0.6c0.2-0.5,0.2-0.9,0.2-1.4
		c0-0.6,0-1.5,0-2.7V8.9c0-1.2,0-2.1,0-2.7c0-0.5-0.1-0.9-0.2-1.4c-0.1-0.3-0.3-0.5-0.6-0.6c-0.4-0.1-0.7-0.2-1.1-0.3l-1-0.1v-1
		h12.5h1.4c0.6,0,1.2,0.1,1.8,0.2c0.7,0.1,1.3,0.3,2,0.5s1.3,0.6,1.9,1c0.6,0.4,1,1,1.4,1.6c0.4,0.8,0.6,1.6,0.5,2.4
		c0,1-0.2,2-0.6,2.9c-0.4,0.8-0.8,1.4-1.4,2c-0.6,0.5-1.2,0.9-1.9,1.2c-0.6,0.3-1.2,0.5-1.9,0.7v0.1c0.8,0.1,1.5,0.3,2.2,0.5
		c0.8,0.3,1.6,0.7,2.3,1.3c0.7,0.6,1.4,1.3,1.8,2.2c0.5,1,0.8,2.1,0.7,3.2c0,1.3-0.3,2.7-1,3.8c-0.7,1-1.6,1.8-2.6,2.4
		c-1.2,0.6-2.5,1.1-3.8,1.3c-1.5,0.3-3,0.4-4.5,0.4h-10.9v-1.1C191.2,29.4,191.3,29.4,191.3,29.4z M199.7,15h1.6
		c0.8,0,1.5-0.1,2.3-0.2c0.7-0.1,1.4-0.4,1.9-0.8c0.6-0.4,1-1,1.3-1.6c0.4-0.9,0.5-1.8,0.5-2.8c0.1-1.4-0.5-2.8-1.5-3.8
		c-1.1-1-2.5-1.4-3.9-1.4c-0.7,0-1.5,0.1-2.1,0.3L199.7,15z M199.7,28.2c0.5,0.2,1.1,0.4,1.7,0.5c0.6,0.1,1.1,0.2,1.7,0.2
		c1.6,0.1,3.1-0.4,4.2-1.6c0.9-1.2,1.4-2.6,1.3-4.1c0-0.8-0.1-1.6-0.4-2.4c-0.3-0.8-0.7-1.5-1.3-2.1c-0.6-0.7-1.4-1.2-2.2-1.5
		c-1-0.4-2.1-0.6-3.2-0.6h-1.8V28.2z"/>
	<path fill="#00006B" d="M235,30c-0.3,0.1-0.7,0.4-1.3,0.6c-0.7,0.3-1.5,0.5-2.3,0.4c-0.6,0-1.1,0-1.7-0.2c-0.4-0.1-0.8-0.3-1.1-0.5
		s-0.6-0.4-0.8-0.7c-0.2-0.3-0.4-0.5-0.5-0.8l-1,0.7c-0.4,0.3-0.8,0.5-1.3,0.7s-1,0.4-1.6,0.5c-0.7,0.1-1.3,0.2-2,0.2
		c-1.4,0.1-2.9-0.4-4-1.3c-1-0.8-1.5-2-1.5-3.3c0-1.2,0.4-2.4,1.2-3.3s1.8-1.6,2.9-2.2c1.1-0.6,2.3-1,3.6-1.3l3.2-0.8v-1
		c0-0.6,0-1.2-0.1-1.8c-0.1-0.5-0.3-1.1-0.6-1.5s-0.7-0.8-1.1-1c-0.6-0.3-1.2-0.4-1.8-0.4c-0.7,0-1.4,0.1-2.1,0.5
		c-0.5,0.3-1,0.7-1.4,1.1c-0.4,0.4-0.7,0.9-0.9,1.4c-0.2,0.5-0.4,0.9-0.6,1.2h-0.4c-0.3-0.3-0.5-0.6-0.7-1s-0.3-0.8-0.5-1.2
		c0.5-0.5,1.1-1.1,1.6-1.6c0.6-0.5,1.3-1,2-1.4c0.8-0.4,1.6-0.8,2.5-1.1c1-0.3,1.9-0.4,2.9-0.4c1.1,0,2.2,0.1,3.2,0.5
		c0.8,0.3,1.4,0.8,1.9,1.5s0.8,1.5,0.9,2.4c0.2,1.1,0.3,2.1,0.2,3.2v5.2c0,0.8,0,1.5,0,2.2s0.1,1.3,0.3,2c0.2,0.5,0.5,1,0.9,1.3
		c0.4,0.4,1,0.6,1.6,0.5c0.1,0,0.2,0,0.3,0L235,30z M226.8,20.8h-0.2h-0.2c-0.6,0-1.2,0.1-1.8,0.2c-0.6,0.2-1.1,0.4-1.6,0.8
		c-0.5,0.3-0.9,0.8-1.2,1.3c-0.3,0.6-0.5,1.3-0.4,2c0,0.9,0.3,1.8,0.8,2.5c0.6,0.7,1.4,1,2.3,1c0.6,0,1.2-0.1,1.7-0.4
		c0.3-0.2,0.6-0.4,0.9-0.6c0-0.2-0.1-0.6-0.1-1s-0.1-0.9-0.1-1.3L226.8,20.8L226.8,20.8z"/>
	<path fill="#00006B" d="M239.4,16.6c0-0.4,0-0.7,0-1.1c0-0.4-0.1-0.7-0.1-1.1c-0.1-0.3-0.2-0.6-0.4-0.8s-0.4-0.3-0.7-0.3
		s-0.6,0-0.8,0.1l-0.5,0.1v-1.2c1.4-0.5,2.7-0.8,4.1-1.1c1.1-0.2,2.3-0.3,3.4-0.4v2.4c0.3-0.3,0.7-0.5,1-0.8
		c0.4-0.3,0.9-0.6,1.4-0.8c0.6-0.3,1.2-0.5,1.9-0.6c0.8-0.2,1.6-0.3,2.4-0.2c0.9,0,1.8,0.1,2.6,0.4c0.8,0.2,1.4,0.7,2,1.2
		c0.6,0.7,1.1,1.4,1.3,2.3c0.3,1.2,0.5,2.4,0.5,3.6v8.3c0,0.5,0,0.9,0.1,1.4c0,0.3,0.1,0.6,0.2,0.8c0.1,0.2,0.3,0.4,0.5,0.5
		c0.3,0.1,0.6,0.2,0.9,0.2l0.9,0.1v1.1h-10.3v-1.1l0.9-0.1c0.3,0,0.6-0.1,0.9-0.2c0.2-0.1,0.4-0.2,0.5-0.5s0.2-0.5,0.2-0.8
		c0-0.5,0.1-0.9,0.1-1.4v-6c0-0.8,0-1.7-0.1-2.6c0-0.8-0.2-1.6-0.5-2.4c-0.3-0.7-0.7-1.3-1.3-1.7c-0.7-0.5-1.6-0.7-2.5-0.7
		c-0.8,0-1.5,0.1-2.1,0.5c-0.5,0.3-0.9,0.7-1.3,1.1v11.8c0,0.5,0,0.9,0.1,1.4c0,0.3,0.1,0.6,0.2,0.8c0.1,0.2,0.3,0.4,0.5,0.5
		c0.3,0.1,0.6,0.2,0.9,0.2l0.9,0.1v1.1H237v-1.1l0.9-0.1c0.3,0,0.6-0.1,0.9-0.2c0.2-0.1,0.4-0.2,0.5-0.5s0.2-0.5,0.2-0.8
		c0-0.5,0.1-0.9,0.1-1.4v-10C239.6,16.6,239.4,16.6,239.4,16.6z"/>
	<path fill="#00006B" d="M261.3,29.4l0.9-0.1c0.3,0,0.6-0.1,0.9-0.2c0.2-0.1,0.4-0.2,0.5-0.4c0.1-0.3,0.2-0.5,0.2-0.8
		c0-0.5,0.1-0.9,0.1-1.4V7.6c0-1.4,0-2.7-0.2-4.1c-0.1-0.8-0.5-1.3-1.2-1.3c-0.2,0-0.5,0-0.7,0h-0.5v-1c0.9-0.2,1.6-0.3,2.4-0.4
		s1.3-0.2,1.9-0.3s1.2-0.1,1.7-0.2s1.1,0,1.7,0v19.3c0.4,0,0.7,0,1,0s0.6-0.1,0.9-0.2s0.6-0.3,0.9-0.5c0.4-0.3,0.7-0.6,1-1l1.4-1.6
		c0.5-0.6,1-1.2,1.5-1.9c0.2-0.3,0.3-0.7,0.4-1.1c0-0.2-0.1-0.3-0.4-0.4l-0.9-0.2l-1.3-0.2v-1.2h9.3v1.1l-0.8,0.1
		c-0.5,0.1-1.1,0.2-1.5,0.4c-0.5,0.2-0.9,0.5-1.3,0.8c-0.6,0.5-1.1,1.1-1.7,1.7c-0.7,0.7-1.6,1.7-2.8,2.9l2.9,4.5
		c0.8,1.2,1.5,2.2,2,3.1s1,1.5,1.4,1.9c0.3,0.4,0.6,0.7,1,1c0.2,0.2,0.5,0.3,0.8,0.4s0.5,0.1,0.8,0.1v1.1h-3.2
		c-0.9,0-1.8-0.1-2.6-0.3c-0.6-0.2-1.2-0.5-1.6-0.9c-0.5-0.4-0.9-1-1.2-1.5c-0.4-0.6-0.8-1.3-1.4-2.2s-0.9-1.5-1.2-2.1
		c-0.3-0.5-0.5-0.9-0.9-1.4c-0.2-0.3-0.5-0.5-0.8-0.7s-0.7-0.2-1.1-0.2H269v5.3c0,0.5,0,0.9,0.1,1.4c0,0.3,0.1,0.6,0.2,0.8
		c0.1,0.2,0.3,0.4,0.5,0.5c0.3,0.1,0.6,0.2,0.9,0.2l0.9,0.1v1.1h-10.3L261.3,29.4L261.3,29.4z"/>
</g>
</svg>
